HIERARCHY
ROOT Hips
{
	OFFSET 0.000000 88.474243 0.000000
	CHANNELS 6 Xposition Yposition Zposition Zrotation Yrotation Xrotation 
	JOINT Hips_Spine
	{
		OFFSET 0.000000 0.000000 0.000000
		CHANNELS 3 Zrotation Yrotation Xrotation
		JOINT Spine
		{
			OFFSET 0.005100 8.711998 -0.691000
			CHANNELS 3 Zrotation Yrotation Xrotation
			JOINT Spine1
			{
				OFFSET -0.009200 8.660301 -1.275000
				CHANNELS 3 Zrotation Yrotation Xrotation
				JOINT Spine2
				{
					OFFSET 0.006300 9.852501 -1.857000
					CHANNELS 3 Zrotation Yrotation Xrotation
					JOINT Spine2_Neck
					{
						OFFSET 0.000000 0.000000 0.000000
						CHANNELS 3 Zrotation Yrotation Xrotation
						JOINT Neck
						{
							OFFSET 0.016300 11.420799 -0.263300
							CHANNELS 3 Zrotation Yrotation Xrotation
							End Site #name: Head
							{
								OFFSET -0.019200 9.262405 2.362500
							}
						}
					}
					JOINT Spine2_LeftShoulder
					{
						OFFSET 0.000000 0.000000 0.000000
						CHANNELS 3 Zrotation Yrotation Xrotation
						JOINT LeftShoulder
						{
							OFFSET 5.616900 6.732201 -0.345700
							CHANNELS 3 Zrotation Yrotation Xrotation
							JOINT LeftArm
							{
								OFFSET 10.664888 -0.183372 -2.440700
								CHANNELS 3 Zrotation Yrotation Xrotation
								JOINT LeftForeArm
								{
									OFFSET 27.459126 0.000000 0.000000
									CHANNELS 3 Zrotation Yrotation Xrotation
									End Site #name: LeftHand
									{
										OFFSET 21.306858 0.000000 0.000000
									}
								}
							}
						}
					}
					JOINT Spine2_RightShoulder
					{
						OFFSET 0.000000 0.000000 0.000000
						CHANNELS 3 Zrotation Yrotation Xrotation
						JOINT RightShoulder
						{
							OFFSET -5.580300 6.737503 -0.344400
							CHANNELS 3 Zrotation Yrotation Xrotation
							JOINT RightArm
							{
								OFFSET -10.679335 -0.188484 -2.383900
								CHANNELS 3 Zrotation Yrotation Xrotation
								JOINT RightForeArm
								{
									OFFSET -27.503529 0.000000 0.000000
									CHANNELS 3 Zrotation Yrotation Xrotation
									End Site #name: RightHand
									{
										OFFSET -21.306808 0.000000 0.000000
									}
								}
							}
						}
					}
				}
			}
		}
	}
	JOINT Hips_LeftUpLeg
	{
		OFFSET 0.000000 0.000000 0.000000
		CHANNELS 3 Zrotation Yrotation Xrotation
		JOINT LeftUpLeg
		{
			OFFSET 6.857700 -6.739601 0.312100
			CHANNELS 3 Zrotation Yrotation Xrotation
			JOINT LeftLeg
			{
				OFFSET -0.367590 -34.731552 -4.572400
				CHANNELS 3 Zrotation Yrotation Xrotation
				End Site #name: LeftFoot
				{
					OFFSET 0.367590 -34.656704 -6.067400
				}
			}
		}
	}
	JOINT Hips_RightUpLeg
	{
		OFFSET 0.000000 0.000000 0.000000
		CHANNELS 3 Zrotation Yrotation Xrotation
		JOINT RightUpLeg
		{
			OFFSET -6.876100 -6.733299 0.301000
			CHANNELS 3 Zrotation Yrotation Xrotation
			JOINT RightLeg
			{
				OFFSET 0.347353 -34.795158 -4.515900
				CHANNELS 3 Zrotation Yrotation Xrotation
				End Site #name: RightFoot
				{
					OFFSET -0.347353 -34.589367 -6.070300
				}
			}
		}
	}
}
MOTION
Frames: 18
Frame Time: 0.041667
0.070554 -0.051961 -0.082652 -8.081792 42.929400 -6.858460 -0.000000 -0.000000 -0.000000 -1.761529 -0.345444 -1.637995 3.354373 -0.021093 3.398327 0.000000 0.000000 0.000000 4.133643 -0.338154 1.912907 -1.661007 -3.205237 -1.653456 2.070172 0.689384 2.392317 -5.265668 -10.733414 1.866129 -78.195611 0.638938 -1.564312 -0.156146 -9.941219 1.002636 3.087894 -0.343723 2.683107 13.359172 10.443114 5.135061 45.119813 15.892152 -15.956422 -172.490405 75.523770 -168.160697 0.000000 -0.000000 0.000000 -1.354000 17.145299 -19.776127 -4.605462 -19.001459 6.744137 0.000000 -0.000000 -0.000000 2.550378 -12.475119 -10.611172 -7.713763 -7.385186 16.459396 
0.093667 -0.183188 -0.124318 -6.967009 34.760685 -4.179666 -0.000000 -0.000000 -0.000000 -2.391560 -1.132843 0.361509 5.034278 0.317339 3.435352 0.000000 0.000000 0.000000 4.615178 -0.307427 3.748744 -1.304176 -4.234107 -3.499125 3.127174 0.731152 2.492970 -5.337014 -12.323478 2.383879 -83.384299 -8.373121 -8.312318 -1.677373 1.289248 0.579583 4.867605 -0.479367 3.905175 16.499971 12.714872 3.548007 49.465163 16.257172 -12.336694 -176.756940 74.870128 -172.508869 0.000000 -0.000000 -0.000000 -0.277090 18.047285 -19.776644 -4.268286 -17.286502 5.541318 0.000000 -0.000000 -0.000000 1.776984 -9.623523 -9.445321 -3.142626 -3.576754 15.075904 
0.148097 -0.226918 -0.182000 -7.912164 35.686225 -4.562515 -0.000000 -0.000000 -0.000000 -0.680157 -3.338557 -1.096116 6.041532 0.266644 3.861721 0.000000 0.000000 0.000000 5.575621 -0.611697 4.478071 -1.115068 -6.106868 -4.109698 3.477251 0.847886 3.313426 -3.891771 -10.533030 0.971474 -84.541566 -10.438961 -13.791410 -1.654962 8.583120 0.745403 5.775549 -0.544505 4.280093 19.124438 14.539122 4.006370 49.811680 16.048853 -11.130411 -178.964373 67.418754 -174.214629 0.000000 -0.000000 -0.000000 0.802576 19.665350 -18.915640 -4.362487 -16.732931 6.539590 0.000000 -0.000000 -0.000000 2.101787 -9.724778 -7.640970 -0.607462 -1.717053 13.954792 
0.213282 -0.295725 -0.267459 -8.779611 35.878788 -5.938638 -0.000000 -0.000000 -0.000000 0.504652 -3.899511 -0.748554 6.285132 0.043541 4.212078 0.000000 0.000000 0.000000 5.920277 -0.826763 4.816228 -1.014279 -6.153884 -4.256897 3.624405 0.686753 3.415783 -3.623751 -7.052952 -1.324836 -85.931757 -12.309953 -15.532906 -1.740978 13.699901 0.746811 6.128550 -0.862082 4.610838 19.270211 13.856583 3.866334 49.185153 17.652809 -14.955676 179.923300 58.431263 -175.213210 0.000000 -0.000000 -0.000000 1.408826 21.133772 -18.232413 -4.050302 -16.499637 7.399332 0.000000 -0.000000 -0.000000 2.400789 -10.931087 -6.439013 0.471881 -0.138682 13.142874 
0.283620 -0.363393 -0.363299 -9.194171 35.669678 -6.676920 -0.000000 -0.000000 -0.000000 1.189858 -4.500784 -0.033870 6.086279 -0.158929 4.456294 0.000000 0.000000 0.000000 5.849003 -0.962995 5.152759 -0.956569 -5.763127 -4.410714 3.505902 0.440607 3.385659 -4.360454 -4.809261 -2.478031 -86.316238 -13.809561 -16.070373 -1.740311 17.144859 0.751237 5.956733 -1.085542 4.894208 19.803364 11.687050 3.153715 49.962506 18.514294 -16.864794 179.510228 52.358543 -175.719057 0.000000 0.000000 -0.000000 1.669891 21.921730 -17.938149 -3.988691 -16.272810 7.849861 -0.000000 -0.000000 -0.000000 2.695727 -12.078839 -5.647499 0.694413 0.880918 12.615281 
0.359098 -0.423185 -0.459236 -9.375724 35.755313 -6.903576 -0.000000 -0.000000 -0.000000 1.587675 -4.949991 0.809468 5.652885 -0.340808 4.522518 0.000000 0.000000 0.000000 5.515560 -1.005747 5.401632 -1.006429 -6.022507 -3.966443 3.214307 0.181732 3.508112 -5.263138 -3.893643 -2.651681 -85.629842 -15.170599 -15.834794 -1.680815 18.818254 0.803287 5.528235 -1.242340 5.078746 20.470947 11.340562 2.728620 51.345734 18.027878 -16.535355 179.448657 49.755382 -175.828999 0.000000 0.000000 -0.000000 1.737854 22.135904 -17.826518 -4.021714 -16.310107 7.807773 -0.000000 -0.000000 -0.000000 2.974980 -12.967304 -5.294297 0.203774 1.213952 12.443107 
0.442580 -0.478317 -0.550736 -9.266037 35.583007 -6.519373 -0.000000 -0.000000 -0.000000 1.809176 -5.252181 1.463966 5.246323 -0.443638 4.482717 0.000000 0.000000 0.000000 5.157426 -0.995294 5.494420 -1.074282 -5.827153 -3.914218 2.913432 0.043666 3.606044 -6.306130 -3.189342 -2.695832 -84.844253 -16.175350 -15.594200 -1.636390 19.286030 0.857413 5.105522 -1.331671 5.074724 21.024107 12.519980 2.878567 52.123969 16.733559 -15.452259 179.525779 48.704096 -175.740189 0.000000 0.000000 -0.000000 1.699499 21.900521 -17.782978 -4.054331 -16.671454 7.326882 -0.000000 -0.000000 -0.000000 3.152413 -13.973610 -5.185748 -0.642830 1.083708 12.308820 
0.529394 -0.532814 -0.637578 -9.049841 35.297360 -5.882315 -0.000000 -0.000000 -0.000000 2.002638 -5.231770 1.749893 4.952027 -0.484406 4.455518 0.000000 0.000000 0.000000 4.914282 -0.975384 5.513200 -1.236278 -5.491010 -4.060193 2.700642 -0.025732 3.601666 -7.135078 -2.370072 -2.857134 -84.425463 -16.767191 -15.535606 -1.619690 19.194600 0.887385 4.795876 -1.369074 4.975632 21.165256 14.284705 3.370835 52.561628 15.213495 -14.225991 179.645450 48.087599 -175.581210 0.000000 0.000000 -0.000000 1.571082 21.447692 -17.781763 -4.035021 -17.167504 6.662366 0.000000 -0.000000 -0.000000 3.250845 -14.789829 -5.297491 -1.341377 0.823715 12.294808 
0.615713 -0.587449 -0.719139 -8.856718 35.046270 -5.299680 -0.000000 -0.000000 -0.000000 2.116729 -5.188075 1.860043 4.782723 -0.492997 4.480772 0.000000 0.000000 0.000000 4.793257 -0.960772 5.503725 -1.383762 -5.203564 -4.278201 2.588628 -0.058077 3.542544 -7.558875 -1.496211 -3.082819 -84.392026 -17.025187 -15.577140 -1.619587 19.122618 0.903635 4.612648 -1.388752 4.899708 21.021156 15.549132 3.724920 52.594094 14.092274 -13.150799 179.734808 47.639798 -175.434654 0.000000 0.000000 -0.000000 1.470642 20.991742 -17.765432 -3.978563 -17.626287 6.064707 0.000000 -0.000000 -0.000000 3.308663 -15.346980 -5.475499 -1.761199 0.546497 12.329995 
0.700523 -0.640294 -0.796365 -8.745086 34.878983 -4.919222 -0.000000 -0.000000 -0.000000 2.183017 -5.113089 1.868586 4.721081 -0.492034 4.548365 0.000000 0.000000 0.000000 4.759194 -0.959240 5.526397 -1.474200 -5.080494 -4.474484 2.541648 -0.067525 3.576464 -7.719089 -0.761383 -3.353433 -84.644110 -17.066810 -15.581860 -1.632384 19.199492 0.901490 4.538273 -1.407952 4.894455 20.839720 16.336316 3.914796 52.627029 13.264077 -12.220835 179.771743 46.952007 -175.363372 0.000000 0.000000 -0.000000 1.441373 20.680748 -17.674300 -3.903580 -17.946625 5.612143 0.000000 -0.000000 -0.000000 3.330938 -15.697252 -5.600093 -1.959208 0.309885 12.358332 
0.784082 -0.690654 -0.870620 -8.716009 34.817903 -4.747427 -0.000000 -0.000000 -0.000000 2.210076 -5.066579 1.873571 4.723980 -0.494558 4.662617 0.000000 0.000000 0.000000 4.771176 -0.962258 5.586071 -1.489687 -5.122882 -4.584723 2.533075 -0.068335 3.691514 -7.697524 -0.280615 -3.546540 -84.933367 -16.995065 -15.534360 -1.643278 19.393534 0.894160 4.528561 -1.447617 4.947080 20.573628 16.526708 3.971606 52.644235 12.855981 -11.675921 179.726618 46.017453 -175.367470 0.000000 0.000000 -0.000000 1.449328 20.512075 -17.534442 -3.827106 -18.146705 5.299525 0.000000 0.000000 -0.000000 3.325307 -15.745555 -5.658378 -1.971995 0.131739 12.362968 
0.866330 -0.738993 -0.943559 -8.735216 34.875492 -4.711831 -0.000000 -0.000000 -0.000000 2.216001 -5.064543 1.909095 4.757679 -0.505480 4.808602 0.000000 0.000000 0.000000 4.808836 -0.973953 5.680413 -1.446057 -5.258792 -4.646442 2.539324 -0.070777 3.860232 -7.616012 0.001487 -3.655718 -85.116113 -16.950479 -15.373656 -1.651460 19.559438 0.888270 4.549808 -1.495155 5.036897 20.304340 16.251446 3.815767 52.598404 12.884309 -11.752625 179.634087 44.981856 -175.408374 0.000000 0.000000 -0.000000 1.475310 20.451021 -17.380597 -3.776670 -18.291212 5.088821 0.000000 0.000000 -0.000000 3.300594 -15.588360 -5.656862 -1.885784 -0.004966 12.314979 
0.947351 -0.785497 -1.016555 -8.783047 35.020299 -4.755282 -0.000000 -0.000000 -0.000000 2.227416 -5.120318 1.970184 4.792776 -0.532888 4.951859 0.000000 0.000000 0.000000 4.852533 -0.996863 5.784498 -1.386017 -5.517376 -4.652058 2.548781 -0.089542 4.011714 -7.570649 0.221872 -3.712813 -85.137243 -16.972878 -15.196945 -1.654749 19.680675 0.883238 4.589107 -1.541472 5.156787 19.965183 15.665276 3.516097 52.569741 13.199059 -12.291756 179.512496 43.909247 -175.467683 0.000000 0.000000 -0.000000 1.512700 20.451152 -17.219692 -3.736414 -18.406716 4.931662 0.000000 0.000000 -0.000000 3.267072 -15.290282 -5.603735 -1.740651 -0.104633 12.212411 
1.027908 -0.830781 -1.090494 -8.842132 35.241248 -4.835979 0.000000 -0.000000 -0.000000 2.252710 -5.207180 2.026513 4.815192 -0.575739 5.078180 0.000000 0.000000 0.000000 4.884506 -1.026962 5.876973 -1.314514 -5.826558 -4.619378 2.550776 -0.126400 4.118196 -7.562734 0.407213 -3.746366 -85.067757 -17.074246 -15.056325 -1.654128 19.790366 0.882730 4.617834 -1.605634 5.259390 19.654041 14.990396 3.231927 52.608177 13.594011 -12.931252 179.389813 42.795255 -175.528549 0.000000 0.000000 -0.000000 1.547880 20.477472 -17.061828 -3.702600 -18.528312 4.793163 0.000000 0.000000 -0.000000 3.236819 -14.921771 -5.526444 -1.585361 -0.185332 12.086587 
1.108407 -0.875547 -1.166183 -8.916223 35.548806 -4.941339 0.000000 -0.000000 -0.000000 2.251142 -5.358752 2.141636 4.818112 -0.627620 5.180189 0.000000 0.000000 0.000000 4.901710 -1.063631 5.953678 -1.247336 -6.204133 -4.553700 2.544214 -0.182261 4.183384 -7.555624 0.583822 -3.787172 -84.969734 -17.198196 -14.971607 -1.654331 19.884577 0.880877 4.623200 -1.676440 5.345035 19.435365 14.404762 3.016638 52.692866 14.033097 -13.419115 179.281194 41.672610 -175.580191 0.000000 0.000000 -0.000000 1.581355 20.514925 -16.906780 -3.673885 -18.670174 4.655914 0.000000 0.000000 -0.000000 3.215452 -14.560518 -5.446900 -1.433042 -0.238621 11.975836 
1.188949 -0.920557 -1.244254 -8.998930 35.926493 -5.059880 0.000000 -0.000000 -0.000000 2.233083 -5.549837 2.274347 4.807879 -0.686138 5.258551 0.000000 0.000000 0.000000 4.907244 -1.100473 6.017569 -1.183545 -6.602318 -4.485022 2.532199 -0.254494 4.213159 -7.535524 0.736658 -3.817536 -84.905644 -17.322493 -14.957816 -1.654418 19.957904 0.878692 4.609543 -1.751383 5.407805 19.325951 14.105276 2.878921 52.768139 14.424863 -13.802105 179.174819 40.510909 -175.637948 0.000000 0.000000 -0.000000 1.613677 20.555823 -16.760811 -3.648546 -18.824018 4.519390 0.000000 0.000000 -0.000000 3.199229 -14.236208 -5.367284 -1.283211 -0.265752 11.880534 
1.269518 -0.966095 -1.325304 -9.090095 36.347297 -5.180341 0.000000 -0.000000 -0.000000 2.213125 -5.764564 2.438122 4.785054 -0.745574 5.324029 0.000000 0.000000 0.000000 4.902838 -1.137325 6.071998 -1.031077 -6.987008 -4.473021 2.515942 -0.330655 4.234175 -7.510069 0.855769 -3.829949 -84.851050 -17.465092 -14.997730 -1.651753 19.970531 0.875313 4.581588 -1.830880 5.464381 19.272382 14.040926 2.789594 52.861059 14.782043 -14.110881 179.069572 39.352117 -175.703215 0.000000 0.000000 -0.000000 1.646486 20.588808 -16.621769 -3.627459 -18.986599 4.388393 0.000000 0.000000 -0.000000 3.189497 -13.976409 -5.291079 -1.141172 -0.261232 11.807632 
1.349569 -1.011686 -1.409044 -9.175563 36.802095 -5.303061 0.000000 -0.000000 -0.000000 2.203459 -5.979782 2.601059 4.762854 -0.805003 5.379151 0.000000 0.000000 0.000000 4.892298 -1.171770 6.114789 -0.887523 -7.327993 -4.484316 2.497991 -0.406398 4.242610 -7.484565 0.997326 -3.853240 -84.838754 -17.590206 -15.096334 -1.650635 19.960357 0.869393 4.550047 -1.906708 5.511225 19.253955 14.097826 2.714014 52.942991 15.068685 -14.359363 178.975637 38.283390 -175.761200 0.000000 0.000000 -0.000000 1.672151 20.609397 -16.491547 -3.608947 -19.165845 4.247781 0.000000 0.000000 -0.000000 3.182543 -13.780960 -5.218525 -1.012552 -0.235214 11.750713 
